<svg xmlns="http://www.w3.org/2000/svg" viewBox="0 0 64 64"><defs><linearGradient id="a" x1="10" y1="8" x2="53" y2="58" gradientUnits="userSpaceOnUse"><stop stop-color="#ff704e"/><stop offset="1" stop-color="#e9432b"/></linearGradient></defs><path fill="url(#a)" d="M14 4h31c8.3 0 15 6.7 15 15v31c0 5.5-4.5 10-10 10H14C8.5 60 4 55.5 4 50V14C4 8.5 8.5 4 14 4Z"/><path fill="#fff" d="M32 14c-9.4 0-16 7.3-16 17.4C16 41.8 22.3 49 31.5 49c2.9 0 5.4-.7 7.6-2l6.6 5.3 3.2-4-6-4.8c3.4-3.1 5.1-7.4 5.1-12.1C48 21.3 41.4 14 32 14Zm0 7c5.1 0 8.1 4.1 8.1 10.4 0 2.9-.7 5.3-2 7.1l-4.2-3.3-3.2 4 2 1.6h-.7c-5.2 0-8.1-4.2-8.1-10.4C23.9 25.1 26.8 21 32 21Z"/><path d="M22 11c1.2-3 3.1-4.5 5.7-4.5M31 10c.3-3.2 1.7-5.2 4-6" stroke="#fff" stroke-width="2.6" stroke-linecap="round"/></svg>
